<svg width="46" height="46" viewBox="0 0 46 46" fill="none" xmlns="http://www.w3.org/2000/svg">
<path d="M42.1667 9.58337V13.4167H36.4167V19.1667H32.5833V13.4167H26.8333V9.58337H32.5833V3.83337H36.4167V9.58337H42.1667ZM36.4167 36.4167H9.58333V9.58337H21.0833V5.75004H9.58333C7.475 5.75004 5.75 7.47504 5.75 9.58337V36.4167C5.75 38.525 7.475 40.25 9.58333 40.25H36.4167C38.525 40.25 40.25 38.525 40.25 36.4167V24.9167H36.4167V36.4167ZM28.75 24.9167V32.5834H32.5833V24.9167H28.75ZM21.0833 32.5834H24.9167V17.25H21.0833V32.5834ZM17.25 32.5834V21.0834H13.4167V32.5834H17.25Z" fill="white"/>
</svg>
