<svg width="41" height="41" viewBox="0 0 41 41" fill="none" xmlns="http://www.w3.org/2000/svg">
<path d="M23.3943 3.61768V8.74585C29.1174 9.57516 33.5237 14.4833 33.5237 20.4577C33.5237 21.9809 33.2198 23.4195 32.7134 24.7566L37.1028 27.3461C38.0482 25.2474 38.5884 22.9118 38.5884 20.4577C38.5884 11.6907 31.9199 4.46391 23.3943 3.61768ZM21.7061 32.305C15.1726 32.305 9.88844 27.0076 9.88844 20.4577C9.88844 14.4833 14.2947 9.57516 20.0178 8.74585V3.61768C11.4754 4.46391 4.82373 11.6738 4.82373 20.4577C4.82373 29.8001 12.3701 37.3824 21.6892 37.3824C27.2773 37.3824 32.2238 34.6575 35.2964 30.4602L30.907 27.8707C28.746 30.5787 25.4371 32.305 21.7061 32.305Z" fill="white"/>
</svg>
