<svg width="46" height="46" viewBox="0 0 46 46" fill="none" xmlns="http://www.w3.org/2000/svg">
<path d="M36.4167 28.75V36.4167H9.58333V28.75H36.4167ZM38.3333 24.9167H7.66667C6.6125 24.9167 5.75 25.7792 5.75 26.8333V38.3333C5.75 39.3875 6.6125 40.25 7.66667 40.25H38.3333C39.3875 40.25 40.25 39.3875 40.25 38.3333V26.8333C40.25 25.7792 39.3875 24.9167 38.3333 24.9167ZM13.4167 35.4583C11.845 35.4583 10.5417 34.1742 10.5417 32.5833C10.5417 30.9925 11.845 29.7083 13.4167 29.7083C14.9883 29.7083 16.2917 30.9925 16.2917 32.5833C16.2917 34.1742 15.0075 35.4583 13.4167 35.4583ZM36.4167 9.58333V17.25H9.58333V9.58333H36.4167ZM38.3333 5.75H7.66667C6.6125 5.75 5.75 6.6125 5.75 7.66667V19.1667C5.75 20.2208 6.6125 21.0833 7.66667 21.0833H38.3333C39.3875 21.0833 40.25 20.2208 40.25 19.1667V7.66667C40.25 6.6125 39.3875 5.75 38.3333 5.75ZM13.4167 16.2917C11.845 16.2917 10.5417 15.0075 10.5417 13.4167C10.5417 11.8258 11.845 10.5417 13.4167 10.5417C14.9883 10.5417 16.2917 11.845 16.2917 13.4167C16.2917 14.9883 15.0075 16.2917 13.4167 16.2917Z" fill="white"/>
</svg>
