<svg width="160" height="33" viewBox="0 0 160 33" fill="none" xmlns="http://www.w3.org/2000/svg">
<path fill-rule="evenodd" clip-rule="evenodd" d="M29.3919 12.8552L15.6761 22.0195C15.1569 22.4489 14.4434 22.2885 14.125 21.7806C13.8295 21.1674 13.9634 20.5425 14.4614 20.2167L19.4556 16.8567L19.3528 16.8334L20.845 15.8559C23.2287 14.2052 23.9226 10.9722 22.3095 8.53114C20.7177 5.98651 17.5373 5.38168 15.1748 6.92884L1.31201 16.2786L3.46058 19.7138L16.6801 10.8753C17.1781 10.5495 17.8899 10.7099 18.2083 11.2195C18.5267 11.7291 18.3928 12.3539 17.872 12.785L12.9006 16.0414L11.5112 17.0422C9.1275 18.693 8.43363 21.926 10.0255 24.4706C11.6385 26.91 14.7977 27.62 17.183 25.9693L31.645 16.3171L29.3952 12.8602L29.3919 12.8552Z" fill="#BE2B2D"/>
<path fill-rule="evenodd" clip-rule="evenodd" d="M27.379 4.64658C21.0133 -1.65401 10.8925 -1.54708 4.63133 4.96738C-1.62988 11.4818 -1.52539 21.9461 4.84031 28.3536C11.3089 34.6542 21.4313 34.5473 27.6925 28.0328C33.9537 21.5183 33.7447 11.0541 27.379 4.64658ZM24.979 25.3629C20.179 30.3819 12.4582 30.3819 7.55377 25.5767C2.64929 20.6646 2.5448 12.6564 7.34479 7.63732C12.0403 2.72516 19.8672 2.61823 24.77 7.42346C29.6745 12.3356 29.779 20.3438 24.979 25.3629Z" fill="#BE2B2D"/>
<path fill-rule="evenodd" clip-rule="evenodd" d="M40.1997 7.86804H44.967L51.3246 17.3766V7.86804H56.3368V25.1324H51.3246L45.0895 15.6256V25.1324H40.1997V7.86804Z" fill="white"/>
<path fill-rule="evenodd" clip-rule="evenodd" d="M59.1491 16.5009C59.1491 13.6238 59.8822 11.4969 61.3499 9.8712C62.9385 8.36915 65.0168 7.49365 67.8283 7.49365C70.6397 7.49365 72.8405 8.24384 74.3066 9.8712C75.7727 11.3716 76.6282 13.4985 76.6282 16.3756C76.6282 18.3773 76.2625 20.0029 75.5278 21.2544C74.9156 22.6311 73.9376 23.6319 72.7164 24.2568C71.4936 25.007 69.905 25.3829 68.0715 25.3829C66.1156 25.3829 64.527 25.1323 63.3042 24.5074C62.0813 23.8809 60.9809 22.8801 60.2479 21.505C59.5148 20.1283 59.1475 18.5026 59.1475 16.5009H59.1491ZM64.2838 16.5009C64.2838 18.2519 64.6495 19.5034 65.2617 20.2536C65.874 21.0038 66.7295 21.3797 67.8299 21.3797C68.9303 21.3797 69.7858 21.0038 70.3964 20.2536C71.007 19.5034 71.3744 18.2519 71.3744 16.2503C71.3744 14.6246 71.007 13.4985 70.3964 12.7483C69.7858 11.9981 68.9303 11.6222 67.8299 11.6222C66.7295 11.6222 65.874 11.9981 65.2617 12.7483C64.6511 13.4985 64.2838 14.7499 64.2838 16.5009Z" fill="white"/>
<path fill-rule="evenodd" clip-rule="evenodd" d="M76.7515 7.86804H82.1294L85.9188 20.2537L89.7082 7.86804H94.9653L88.7302 25.1324H83.1074L76.7515 7.86804Z" fill="white"/>
<path fill-rule="evenodd" clip-rule="evenodd" d="M96.9209 7.86804H102.178V25.1324H96.9209V7.86804Z" fill="white"/>
<path fill-rule="evenodd" clip-rule="evenodd" d="M105.969 7.86804H111.103V14.3741L116.604 7.86804H123.572L117.459 14.3741L123.817 25.1324H117.459L113.792 18.0015L111.103 20.8786V25.1324H105.969V7.86804Z" fill="white"/>
<path fill-rule="evenodd" clip-rule="evenodd" d="M124.06 16.5009C124.06 13.6238 124.916 11.4969 126.382 9.8712C127.972 8.36915 130.049 7.49365 132.86 7.49365C135.671 7.49365 137.75 8.24384 139.34 9.8712C140.806 11.3716 141.541 13.4985 141.541 16.3756C141.541 18.3773 141.296 20.0029 140.563 21.2544C139.952 22.6311 138.974 23.6319 137.751 24.2568C136.408 25.007 134.94 25.3829 132.984 25.3829C131.151 25.3829 129.562 25.1323 128.339 24.5074C126.996 23.8809 126.018 22.8801 125.283 21.505C124.427 20.1283 124.06 18.5026 124.06 16.5009ZM129.317 16.5009C129.317 18.2519 129.685 19.5034 130.295 20.2536C130.907 21.0038 131.763 21.3797 132.862 21.3797C133.962 21.3797 134.818 21.0038 135.43 20.2536C136.04 19.5034 136.408 18.2519 136.408 16.2503C136.408 14.6246 136.04 13.4985 135.43 12.7483C134.818 11.9981 133.84 11.6222 132.741 11.6222C131.763 11.6222 130.907 11.9981 130.295 12.7483C129.685 13.4985 129.317 14.7499 129.317 16.5009Z" fill="white"/>
<path fill-rule="evenodd" clip-rule="evenodd" d="M141.662 7.86804H147.164L150.954 20.2537L154.743 7.86804H159.998L153.765 25.1324H148.142L141.662 7.86804Z" fill="white"/>
</svg>
