<svg width="20" height="13" viewBox="0 0 20 13" fill="none" xmlns="http://www.w3.org/2000/svg">
<path d="M18.9743 0.166504H1.02566C0.461523 0.166504 0 0.604951 0 1.14085V11.8588C0 12.3947 0.461523 12.8332 1.02566 12.8332H18.9744C19.5384 12.8332 20 12.3947 20 11.8588V1.14085C20 0.604951 19.5385 0.166504 18.9743 0.166504ZM18.5895 0.897225L10.59 6.5973C10.4462 6.70128 10.2254 6.76633 9.99996 6.76537C9.77457 6.76633 9.55383 6.70128 9.40996 6.5973L1.41051 0.897225H18.5895ZM14.3164 6.9734L18.6754 12.0888C18.6798 12.0939 18.6851 12.0978 18.6898 12.1025H1.31023C1.31484 12.0976 1.32023 12.0939 1.32461 12.0888L5.68359 6.9734C5.81715 6.81654 5.79184 6.58657 5.62641 6.4594C5.46129 6.33252 5.21922 6.35657 5.08563 6.51347L0.769219 11.5789V1.35397L8.94867 7.18185C9.25613 7.39938 9.6302 7.49512 9.99992 7.49609C10.3691 7.49535 10.7435 7.3996 11.0512 7.18185L19.2306 1.35397V11.5789L14.9143 6.51347C14.7807 6.35661 14.5384 6.33249 14.3736 6.4594C14.2082 6.58628 14.1828 6.81654 14.3164 6.9734Z" fill="white"/>
</svg>
