<svg width="19" height="18" viewBox="0 0 19 18" fill="none" xmlns="http://www.w3.org/2000/svg">
<path d="M0.328382 8.86354L4.97467 11.1792C5.15438 11.2678 5.36655 11.2615 5.53834 11.161L9.67401 8.75667L7.17076 10.9749C7.0433 11.0881 6.97047 11.2496 6.97047 11.4198V16.823C6.97047 17.393 7.69801 17.6328 8.03922 17.18L10.0477 14.5097L15.0146 17.3383C15.3629 17.5386 15.8094 17.3375 15.8902 16.9393L18.988 1.50184C19.0806 1.03792 18.619 0.659503 18.19 0.832086L0.377465 7.77896C-0.100701 7.96579 -0.131576 8.63475 0.328382 8.86354ZM17.6105 2.33309L14.8879 15.8999L10.1815 13.2193C9.92497 13.0728 9.59484 13.1378 9.41276 13.3784L8.15797 15.0465V11.6866L14.9275 5.68896C15.4635 5.21475 14.8475 4.37163 14.2356 4.73104L5.21851 9.97346L2.05817 8.39884L17.6105 2.33309Z" fill="white"/>
</svg>
