<svg width="19" height="19" viewBox="0 0 19 19" fill="none" xmlns="http://www.w3.org/2000/svg">
<g clip-path="url(#clip0)">
<path d="M18.331 10.9986C18.8978 6.22721 18.0586 3.21492 16.545 1.85246L16.5458 1.85167C14.1027 -0.475042 5.85194 -0.819417 2.92911 1.95617C1.61652 3.31388 1.15419 5.3065 1.10352 7.77333C1.05286 10.241 0.992691 14.8635 5.30015 16.1175H5.30411L5.30015 18.0325C5.30015 18.0325 5.27086 18.8084 5.76644 18.9643C6.33327 19.148 6.58977 18.7878 8.35282 16.682C11.301 16.9377 13.5651 16.3518 13.8224 16.2663C14.4178 16.0668 17.7863 15.6211 18.331 10.9986ZM8.64336 15.3345C8.64336 15.3345 6.7774 17.6613 6.19711 18.2653C6.00711 18.4616 5.7989 18.4434 5.80207 18.0539C5.80207 17.7982 5.81632 14.8746 5.81632 14.8746C2.16436 13.828 2.37969 9.89183 2.41927 7.83271C2.45886 5.77279 2.83569 4.08575 3.94719 2.94971C6.5114 0.545417 13.7449 1.08296 15.5879 2.81513C17.8409 4.8125 17.039 10.4555 17.0437 10.6479C16.5806 14.5065 13.8509 14.7511 13.349 14.9181C13.1345 14.9894 11.1434 15.5016 8.64336 15.3345Z" fill="white"/>
<path d="M9.67537 3.40186C9.37058 3.40186 9.37058 3.87686 9.67537 3.88081C12.0401 3.89902 13.9876 5.54727 14.009 8.57065C14.009 8.88969 14.476 8.88573 14.4721 8.56669H14.4713C14.446 5.30898 12.3195 3.42006 9.67537 3.40186Z" fill="white"/>
<path d="M12.7861 8.06949C12.779 8.38457 13.2452 8.39961 13.2492 8.08057C13.288 6.28428 12.1805 4.80465 10.0992 4.6487C9.79437 4.62653 9.7627 5.10549 10.0667 5.12765C11.8717 5.26461 12.8225 6.49644 12.7861 8.06949Z" fill="white"/>
<path d="M12.2876 10.1127C11.8965 9.88625 11.4983 10.0272 11.3336 10.2496L10.9893 10.6953C10.8143 10.9218 10.4873 10.8917 10.4873 10.8917C8.10125 10.2607 7.46317 7.76379 7.46317 7.76379C7.46317 7.76379 7.43388 7.42575 7.65238 7.24446L8.08304 6.88821C8.29838 6.71721 8.43454 6.30554 8.21525 5.901C7.62942 4.84254 7.23596 4.47759 7.03567 4.19734C6.82509 3.93371 6.50842 3.87434 6.17909 4.05246H6.17196C5.48717 4.45304 4.73746 5.20275 4.97734 5.97463C5.38663 6.78846 6.13871 9.38275 8.53588 11.3429C9.66242 12.27 11.4453 13.22 12.2021 13.4393L12.2092 13.4503C12.955 13.6989 13.6801 12.9199 14.0672 12.2145V12.209C14.239 11.8678 14.182 11.5448 13.9311 11.3334C13.4862 10.8996 12.8148 10.4206 12.2876 10.1127Z" fill="white"/>
<path d="M10.4256 6.41574C11.1864 6.46008 11.5553 6.85749 11.5949 7.6737C11.6091 7.99275 12.0722 7.97058 12.058 7.65154C12.0073 6.58595 11.4516 5.9922 10.4509 5.93679C10.1461 5.91858 10.1176 6.39754 10.4256 6.41574Z" fill="white"/>
</g>
<defs>
<clipPath id="clip0">
<rect width="19" height="19" fill="white"/>
</clipPath>
</defs>
</svg>
